<?xml version="1.0" standalone="no"?>
<!DOCTYPE svg PUBLIC "-//W3C//DTD SVG 20010904//EN"
 "http://www.w3.org/TR/2001/REC-SVG-20010904/DTD/svg10.dtd">
<svg version="1.0" xmlns="http://www.w3.org/2000/svg"
 width="512.000000pt" height="512.000000pt" viewBox="0 0 512.000000 512.000000"
 preserveAspectRatio="xMidYMid meet">
<metadata>
Created by potrace 1.16, written by Peter Selinger 2001-2019
</metadata>
<g transform="translate(0.000000,512.000000) scale(0.100000,-0.100000)"
fill="#000000" stroke="none">
<path d="M2047 4454 c-49 -13 -143 -46 -209 -74 -601 -248 -1025 -763 -1165
-1415 -26 -123 -28 -144 -27 -385 0 -238 2 -263 27 -381 83 -392 262 -723 539
-997 275 -272 600 -447 981 -528 153 -32 457 -44 626 -24 608 72 1166 446
1464 983 100 181 198 449 200 552 3 140 -143 213 -267 135 -137 -87 -301 -155
-467 -192 -138 -31 -407 -33 -539 -4 -388 84 -701 302 -908 631 -75 121 -148
308 -179 463 -27 135 -25 395 6 531 36 166 103 329 190 465 56 89 38 198 -41
246 -44 27 -120 25 -231 -6z m-203 -479 c-81 -264 -95 -577 -38 -855 43 -209
153 -459 282 -640 86 -122 271 -306 392 -392 424 -300 951 -392 1453 -254 48
13 87 21 87 17 0 -13 -95 -168 -148 -241 -74 -101 -248 -271 -355 -347 -188
-132 -434 -234 -663 -273 -136 -24 -371 -28 -494 -10 -722 108 -1280 667
-1379 1383 -14 101 -14 333 0 434 56 404 278 797 589 1044 71 56 280 192 287
185 1 -1 -5 -24 -13 -51z"/>
</g>
</svg>
