<?xml version="1.0" standalone="no"?>
<!DOCTYPE svg PUBLIC "-//W3C//DTD SVG 20010904//EN"
 "http://www.w3.org/TR/2001/REC-SVG-20010904/DTD/svg10.dtd">
<svg version="1.0" xmlns="http://www.w3.org/2000/svg"
 width="70" height="70" viewBox="0 0 512.000000 512.000000"
 preserveAspectRatio="xMidYMid meet">
<metadata>
Created by potrace 1.16, written by Peter Selinger 2001-2019
</metadata>
<g transform="translate(0.000000,512.000000) scale(0.100000,-0.100000)"
fill="#df4141" stroke="none">
<path d="M2277 4895 c-500 -61 -981 -289 -1341 -636 -138 -133 -225 -235 -330
-392 -193 -286 -324 -630 -378 -992 -20 -139 -17 -523 5 -660 70 -424 233
-800 484 -1118 73 -93 287 -307 380 -380 317 -250 698 -415 1118 -484 155 -25
535 -25 690 0 507 83 934 294 1288 636 401 388 652 907 708 1466 14 146 7 439
-16 580 -169 1063 -1019 1872 -2087 1985 -129 13 -387 11 -521 -5z m-397
-1387 c26 -8 115 -90 358 -331 l322 -321 323 321 c257 255 330 323 362 333
140 45 275 -48 275 -190 0 -28 -7 -67 -15 -88 -11 -25 -122 -143 -333 -354
l-317 -318 317 -318 c211 -211 322 -329 333 -354 56 -137 -40 -288 -184 -290
-89 0 -107 14 -443 350 l-318 317 -317 -316 c-267 -265 -326 -319 -366 -334
-160 -60 -322 102 -262 262 15 40 69 100 334 366 l315 317 -316 318 c-211 211
-322 329 -333 354 -41 99 -1 218 90 266 60 31 96 33 175 10z"/>
</g>
</svg>
