<?xml version="1.0" standalone="no"?>
<!DOCTYPE svg PUBLIC "-//W3C//DTD SVG 20010904//EN"
 "http://www.w3.org/TR/2001/REC-SVG-20010904/DTD/svg10.dtd">
<svg version="1.0" xmlns="http://www.w3.org/2000/svg"
 width="512.000000pt" height="512.000000pt" viewBox="0 0 512.000000 512.000000"
 preserveAspectRatio="xMidYMid meet">

<g transform="translate(0.000000,512.000000) scale(0.100000,-0.100000)"
fill="#000000" stroke="none">
<path d="M2460 4668 c-25 -14 -58 -44 -75 -67 -30 -43 -30 -43 -33 -204 -4
-177 3 -218 45 -267 89 -106 256 -97 338 18 l30 44 0 182 0 183 -27 39 c-44
62 -90 88 -167 92 -55 3 -74 -1 -111 -20z"/>
<path d="M1115 4111 c-108 -50 -153 -172 -105 -280 24 -52 178 -213 235 -246
90 -52 182 -39 255 35 74 73 87 165 35 255 -33 57 -194 211 -246 235 -55 25
-122 25 -174 1z"/>
<path d="M3831 4110 c-52 -24 -213 -178 -246 -235 -52 -90 -39 -182 35 -255
73 -74 165 -87 255 -35 57 33 211 194 235 246 80 178 -101 359 -279 279z"/>
<path d="M2420 3834 c-200 -26 -408 -102 -565 -207 -83 -56 -108 -77 -203
-170 -172 -170 -294 -396 -348 -647 -26 -119 -26 -381 0 -500 110 -512 494
-896 1006 -1006 119 -26 381 -26 500 0 513 111 895 493 1006 1006 26 119 26
381 0 500 -111 513 -494 896 -1006 1006 -73 15 -320 27 -390 18z"/>
<path d="M539 2747 c-24 -13 -57 -43 -74 -66 -27 -39 -30 -50 -30 -120 0 -68
3 -82 27 -117 15 -21 44 -50 65 -64 36 -24 41 -25 219 -25 l182 0 44 30 c138
97 118 306 -34 370 -28 11 -75 15 -196 15 -147 0 -162 -2 -203 -23z"/>
<path d="M4180 2754 c-141 -62 -168 -258 -50 -357 49 -42 91 -49 266 -45 157
3 162 4 200 30 21 15 50 44 64 65 21 31 25 48 25 113 0 65 -4 82 -25 113 -14
21 -43 50 -64 65 -39 27 -42 27 -210 29 -137 2 -178 0 -206 -13z"/>
<path d="M1304 1560 c-18 -4 -47 -16 -65 -28 -55 -34 -207 -196 -229 -243 -80
-178 101 -359 279 -279 52 24 213 178 246 235 52 90 39 182 -35 255 -59 60
-120 79 -196 60z"/>
<path d="M3706 1558 c-25 -7 -58 -29 -86 -57 -74 -75 -87 -165 -35 -256 33
-57 194 -211 246 -235 178 -80 359 101 279 279 -24 51 -177 212 -235 246 -48
28 -116 37 -169 23z"/>
<path d="M2510 1061 c-78 -25 -131 -74 -151 -139 -6 -23 -9 -100 -7 -198 3
-152 4 -163 28 -197 14 -21 43 -50 64 -65 35 -24 49 -27 116 -27 67 0 81 3
116 27 21 15 50 44 64 65 24 34 25 45 28 197 4 175 -3 217 -45 266 -48 57
-151 91 -213 71z"/>
</g>
</svg>
