<?xml version="1.0" standalone="no"?>
<!DOCTYPE svg PUBLIC "-//W3C//DTD SVG 20010904//EN"
 "http://www.w3.org/TR/2001/REC-SVG-20010904/DTD/svg10.dtd">
<svg version="1.0" xmlns="http://www.w3.org/2000/svg"
 width="512.000000pt" height="512.000000pt" viewBox="0 0 512.000000 512.000000"
 preserveAspectRatio="xMidYMid meet">
<metadata>
Created by potrace 1.16, written by Peter Selinger 2001-2019
</metadata>
<g transform="translate(0.000000,512.000000) scale(0.100000,-0.100000)"
fill="#000000" stroke="none">
<path d="M2478 4161 l-33 -29 -3 -160 c-3 -131 0 -166 12 -191 42 -79 170 -80
211 -1 21 41 22 308 0 350 -22 42 -53 60 -107 60 -39 0 -54 -6 -80 -29z"/>
<path d="M1244 3646 c-30 -30 -34 -40 -34 -86 l0 -51 98 -101 c108 -112 133
-128 193 -128 33 0 47 6 75 34 30 30 34 40 34 86 l0 53 -97 99 c-110 112 -134
128 -194 128 -33 0 -47 -6 -75 -34z"/>
<path d="M3623 3567 l-113 -113 0 -53 c0 -47 4 -57 34 -87 30 -30 40 -34 86
-34 l51 0 101 98 c112 108 128 133 128 193 0 33 -6 47 -34 75 -30 30 -40 34
-87 34 l-53 0 -113 -113z"/>
<path d="M2445 3489 c-263 -24 -523 -146 -710 -334 -447 -449 -458 -1171 -23
-1631 516 -546 1416 -465 1826 164 382 587 166 1377 -463 1690 -180 89 -415
131 -630 111z m370 -273 c255 -77 462 -253 576 -491 65 -136 91 -249 91 -395
0 -245 -82 -453 -246 -628 -134 -141 -281 -229 -462 -274 -125 -31 -314 -31
-434 1 -181 48 -324 134 -456 273 -414 439 -291 1161 246 1441 161 84 265 108
455 103 116 -3 155 -8 230 -30z"/>
<path d="M753 2430 c-41 -24 -53 -48 -53 -102 0 -50 19 -82 60 -103 42 -22
309 -21 350 0 76 40 81 160 8 205 -29 18 -51 20 -183 20 -131 0 -154 -3 -182
-20z"/>
<path d="M4008 2435 c-77 -43 -75 -170 2 -210 41 -21 308 -22 350 0 42 22 60
53 60 107 0 39 -6 54 -29 80 l-29 33 -164 2 c-131 2 -168 0 -190 -12z"/>
<path d="M1338 1283 c-112 -110 -128 -134 -128 -194 0 -33 6 -47 34 -75 28
-28 42 -34 75 -34 59 0 84 16 182 117 99 101 109 116 109 173 0 34 -6 48 -34
76 -30 30 -40 34 -86 34 l-53 0 -99 -97z"/>
<path d="M3544 1346 c-30 -30 -34 -40 -34 -86 l0 -51 98 -101 c108 -112 133
-128 193 -128 33 0 47 6 75 34 30 30 34 40 34 86 l0 53 -113 113 -112 114 -54
0 c-47 0 -57 -4 -87 -34z"/>
<path d="M2503 930 c-13 -5 -32 -24 -43 -42 -18 -29 -20 -51 -20 -181 0 -164
8 -195 60 -222 38 -19 100 -19 128 1 44 31 52 63 52 219 0 162 -8 193 -60 220
-32 17 -83 19 -117 5z"/>
</g>
</svg>
